<svg width="37" height="38" viewBox="0 0 37 38" fill="none" xmlns="http://www.w3.org/2000/svg">
<path d="M23.6641 9.94751H12.5605C10.6298 9.94751 9.05969 11.5176 9.05969 13.4483V17.1472V24.559C9.05969 26.4898 10.6298 28.0598 12.5605 28.0598H23.6641C25.5949 28.0598 27.165 26.4898 27.165 24.559V17.1401V13.4413C27.1579 11.5176 25.5878 9.94751 23.6641 9.94751ZM24.6684 12.0339H25.0715V12.4299V15.1033L22.0092 15.1103L22.0021 12.0409L24.6684 12.0339ZM15.5238 17.1401C16.1038 16.3409 17.0444 15.8105 18.1053 15.8105C19.1661 15.8105 20.1067 16.3339 20.6867 17.1401C21.0686 17.6635 21.2878 18.307 21.2878 19.0001C21.2878 20.7541 19.8592 22.1898 18.0982 22.1898C16.3372 22.1898 14.9227 20.7541 14.9227 19.0001C14.9227 18.307 15.149 17.6635 15.5238 17.1401ZM25.3969 24.552C25.3969 25.5067 24.6189 26.2847 23.6641 26.2847H12.5605C11.6057 26.2847 10.8278 25.5067 10.8278 24.552V17.1401H13.5294C13.296 17.713 13.1617 18.3424 13.1617 19.0001C13.1617 21.7301 15.3824 23.9508 18.1123 23.9508C20.8423 23.9508 23.063 21.7301 23.063 19.0001C23.063 18.3424 22.9286 17.713 22.6952 17.1401H25.3969V24.552Z" fill="#B19841"/>
</svg>
